<svg width="512" height="512" viewBox="0 0 512 512" fill="none" xmlns="http://www.w3.org/2000/svg">
  <defs>
    <linearGradient id="autolinksGradient" x1="96" y1="64" x2="416" y2="448" gradientUnits="userSpaceOnUse">
      <stop stop-color="#F47B2D"/>
      <stop offset="1" stop-color="#F36A2F"/>
    </linearGradient>
    <linearGradient id="autolinksGlow" x1="128" y1="112" x2="384" y2="400" gradientUnits="userSpaceOnUse">
      <stop stop-color="#FFFFFF" stop-opacity="0.24"/>
      <stop offset="1" stop-color="#FFFFFF" stop-opacity="0"/>
    </linearGradient>
  </defs>

  <rect x="32" y="32" width="448" height="448" rx="112" fill="url(#autolinksGradient)"/>
  <rect x="32" y="32" width="448" height="448" rx="112" fill="url(#autolinksGlow)"/>
  <rect x="40" y="40" width="432" height="432" rx="104" stroke="#000000" stroke-opacity="0.12" stroke-width="8"/>

  <g transform="translate(88 90) scale(14)" stroke="#FFFFFF" stroke-width="2.2" stroke-linecap="round" stroke-linejoin="round">
    <path d="M8.5 14.5A2.5 2.5 0 0 0 11 12c0-1.38-1-2-1-3 0-1.656.895-3 2-4 .445 1.766 2 3 2 5 0 1.656-1 3-2 4"/>
    <path d="M17.657 18A7 7 0 1 0 6 18c0-4.29 3-7 3-7s.5 3 2.5 5c0 0 .5-1.5 2-3 .093.677.5 1.5.5 2.5 0 1.5-1 2.5-1 2.5"/>
  </g>
</svg>
